Coordinates
version=1
nRows=14
nColumns=40
inDegrees=yes

Units are S.I. units (second, meters, Newtons, ...)
Angles are in degrees.

endheader
time	pelvis_tilt	pelvis_list	pelvis_rotation	pelvis_tx	pelvis_ty	pelvis_tz	hip_flexion_r	hip_adduction_r	hip_rotation_r	knee_angle_r	knee_angle_r_beta	ankle_angle_r	subtalar_angle_r	mtp_angle_r	hip_flexion_l	hip_adduction_l	hip_rotation_l	knee_angle_l	knee_angle_l_beta	ankle_angle_l	subtalar_angle_l	mtp_angle_l	lumbar_extension	lumbar_bending	lumbar_rotation	arm_flex_r	arm_add_r	arm_rot_r	elbow_flex_r	pro_sup_r	wrist_flex_r	wrist_dev_r	arm_flex_l	arm_add_l	arm_rot_l	elbow_flex_l	pro_sup_l	wrist_flex_l	wrist_dev_l
      1.25000000	     -0.87005590	     -1.30268319	      7.12869832	     -0.29398067	      0.88822406	      1.44582035	     27.93606636	     -4.08584173	    -17.63032730	    -34.28220836	     -0.59833741	      6.07941558	    -14.16879009	     19.35004713	      3.69877660	      1.94509332	      9.03281960	    -27.01906783	     -0.47157169	     14.96656115	      4.81070157	     -1.47833636	     -5.57374438	      0.81258870	     -9.37862493	     -5.51713101	     -6.12455563	    -17.00583831	     23.71915549	     89.95437384	      0.00000000	      0.00000000	      8.66056838	     12.12326979	     11.87944155	     44.01608315	     89.95437384	      0.00000000	      0.00000000
      1.26000000	     -1.15176663	     -1.24528293	      7.35690194	     -0.28545021	      0.88736488	      1.44587725	     28.08886580	     -4.22184914	    -18.19521699	    -31.07045843	     -0.54228180	      6.54035750	    -13.10293007	     18.77867679	      3.46916281	      1.98728640	      9.06260433	    -27.17418711	     -0.47427904	     14.96445546	      4.67078788	     -1.88498609	     -5.32423102	      0.76426616	     -9.62571491	     -5.55844214	     -6.06722917	    -17.28935577	     23.35765289	     89.95437384	      0.00000000	      0.00000000	      9.04516262	     12.19875449	     11.90146325	     44.44648011	     89.95437384	      0.00000000	      0.00000000
      1.27000000	     -1.13145906	     -1.25794794	      7.52797919	     -0.27627672	      0.88696767	      1.44625877	     27.91668057	     -4.24526784	    -18.83089935	    -28.18075199	     -0.49184691	      6.86301876	    -11.79897606	     17.76614310	      2.77236991	      2.26248566	      9.46077898	    -27.07404318	     -0.47253120	     14.76105325	      3.91053778	     -2.73525874	     -5.34459573	      0.82378818	     -9.78929303	     -5.67426449	     -6.00672770	    -17.59330202	     23.15393107	     89.95437384	      0.00000000	      0.00000000	      9.37274250	     12.28951986	     11.90624963	     44.84258123	     89.95437384	      0.00000000	      0.00000000
      1.28000000	     -1.42178661	     -1.14690023	      7.73145284	     -0.26755189	      0.88608526	      1.44652683	     28.11814229	     -4.45821715	    -19.50994042	    -25.55230270	     -0.44597181	      7.15611731	    -10.65403842	     17.29207767	      2.55704428	      2.27691366	      9.52575525	    -27.26022865	     -0.47578074	     14.74254311	      3.89307258	     -2.99451976	     -5.06661429	      0.71469215	    -10.01578701	     -5.69738354	     -5.94338778	    -17.88358135	     22.77092176	     89.95437384	      0.00000000	      0.00000000	      9.68201937	     12.38558050	     11.94277143	     45.20170854	     89.95437384	      0.00000000	      0.00000000
      1.29000000	     -1.77375892	     -0.82952615	      7.82329640	     -0.25883819	      0.88506895	      1.44686420	     28.52108186	     -4.86557584	    -19.97842095	    -23.49174659	     -0.41000833	      7.10248060	     -9.66844662	     16.99460529	      2.37750083	      2.05221580	      9.65280489	    -27.47040651	     -0.47944904	     14.66534594	      3.78739403	     -3.08609535	     -4.76336062	      0.38928672	    -10.13582291	     -5.85901373	     -5.89995676	    -17.99661617	     22.70080580	     89.95437384	      0.00000000	      0.00000000	      9.92792608	     12.49334157	     11.91782674	     45.53309980	     89.95437384	      0.00000000	      0.00000000
      1.30000000	     -1.54984714	     -0.99198931	      8.13070010	     -0.24925277	      0.88489807	      1.44723054	     28.12642745	     -4.98185469	    -21.84573730	    -21.62616262	     -0.37744774	      7.16279934	     -6.73315018	     15.48847793	      1.59910638	      2.58771785	      9.85855424	    -27.63986685	     -0.48240668	     14.42439483	      3.07055498	     -3.74532196	     -4.95635845	      0.67641300	    -10.36590144	     -5.88750276	     -5.85876041	    -18.48166424	     22.40139159	     89.95437384	      0.00000000	      0.00000000	     10.19446868	     12.47153567	     12.00458390	     45.82284891	     89.95437384	      0.00000000	      0.00000000
      1.31000000	     -1.90023762	     -0.62004735	      7.98516555	     -0.24021328	      0.88377602	      1.44766173	     28.64534683	     -5.36868407	    -22.34124204	    -20.48651929	     -0.35755721	      7.20735612	     -6.39778008	     15.29301796	      1.35735952	      2.26941395	     10.01088224	    -27.81844692	     -0.48552349	     14.33533452	      3.01072494	     -3.76659495	     -4.61259737	      0.32744714	    -10.20883852	     -6.04313241	     -5.92913443	    -18.46076400	     22.30105353	     89.95437384	      0.00000000	      0.00000000	     10.37018817	     12.47052891	     11.98631361	     46.06982778	     89.95437384	      0.00000000	      0.00000000
      1.32000000	     -1.64191093	     -0.86577934	      8.32131317	     -0.23036149	      0.88371392	      1.44849086	     28.16120539	     -5.17637348	    -23.14646719	    -19.20107381	     -0.33512196	      6.98856064	     -3.48695156	     13.96811432	      0.63574285	      2.99228201	     10.12958749	    -28.14337785	     -0.49119461	     13.83914984	      2.28834118	     -4.26526811	     -4.78987588	      0.68436046	    -10.55586167	     -5.97788814	     -5.86867454	    -18.80148279	     21.92461000	     89.95437384	      0.00000000	      0.00000000	     10.48323813	     12.50156752	     12.19551248	     46.27973586	     89.95437384	      0.00000000	      0.00000000
      1.33000000	     -1.85295382	     -0.58703172	      8.37220995	     -0.22080556	      0.88280447	      1.44894430	     28.49008485	     -5.45546099	    -22.95256756	    -18.80026384	     -0.32812650	      6.92931138	     -3.10707698	     13.63107029	      0.30402433	      2.86332844	     10.07303908	    -28.40461796	     -0.49575411	     13.59475251	      2.12048223	     -4.28012249	     -4.53903445	      0.45355376	    -10.57413044	     -6.16862473	     -5.94149614	    -18.73623374	     21.89474965	     89.95437384	      0.00000000	      0.00000000	     10.56141007	     12.51489627	     12.16994637	     46.44053697	     89.95437384	      0.00000000	      0.00000000
      1.34000000	     -1.48431122	     -0.33621816	      8.44952947	     -0.21030419	      0.88281337	      1.44944796	     27.93507425	     -5.71980342	    -23.22980862	    -18.38282940	     -0.32084090	      5.78333974	     -1.68417475	      3.59042609	     -0.87706711	      2.91526624	     10.06627261	    -28.25982277	     -0.49322695	     12.52810209	      1.99202976	     -8.84179958	     -4.84110582	      0.33952763	    -10.66699195	     -6.17903286	     -5.98661088	    -18.72607482	     21.61082631	     89.95437384	      0.00000000	      0.00000000	     10.51391950	     12.51307405	     12.25547750	     46.67866596	     89.95437384	      0.00000000	      0.00000000
      1.35000000	     -1.64202689	     -0.16528330	      8.48752627	     -0.20019149	      0.88179136	      1.45016185	     28.16943516	     -5.83946817	    -22.85473935	    -18.65276398	     -0.32555215	      5.65309991	     -1.64454019	      3.51804786	     -1.20037632	      2.93973027	      9.85974842	    -28.66729300	     -0.50033865	     12.19852798	      1.93876344	     -8.66587568	     -4.56022904	      0.23375769	    -10.65497134	     -6.47784400	     -6.06723673	    -18.66096358	     21.78987361	     89.95437384	      0.00000000	      0.00000000	     10.43603493	     12.50458880	     12.26383310	     46.82418316	     89.95437384	      0.00000000	      0.00000000
      1.36000000	     -1.78535594	      0.00129440	      8.52505151	     -0.18970634	      0.88082911	      1.45090814	     28.25162259	     -5.92596516	    -22.42149934	    -19.03762686	     -0.33226927	      5.50069342	     -1.62423778	      3.44514881	     -1.53518437	      2.96844145	      9.61530732	    -29.11097386	     -0.50808234	     11.84536933	      1.88180130	     -8.48598372	     -4.24904184	      0.12832936	    -10.63545541	     -6.77073241	     -6.15259089	    -18.58597993	     21.92733702	     89.95437384	      0.00000000	      0.00000000	     10.26194996	     12.46248673	     12.26768080	     46.93499607	     89.95437384	      0.00000000	      0.00000000
      1.37000000	     -1.40294103	      0.08595274	      8.54801846	     -0.17870902	      0.88066135	      1.45182766	     27.81623403	     -5.83325766	    -21.96807923	    -19.95537339	     -0.34828697	      5.79624802	     -2.25851532	      3.39044360	     -2.52514128	      3.16365502	      9.32382175	    -29.42672256	     -0.51359320	     11.41035090	      1.87801071	     -8.34109003	     -4.43066155	      0.18379131	    -10.76855966	     -6.49400643	     -6.28363484	    -18.43121150	     21.14006145	     89.95437384	      0.00000000	      0.00000000	     10.06749937	     12.43781407	     12.47545569	     46.85624352	     89.95437384	      0.00000000	      0.00000000
      1.38000000	     -0.82160564	      0.27808530	      8.34895961	     -0.16721173	      0.88091590	      1.45306938	     26.84191396	     -5.51346770	    -21.03255820	    -20.32175476	     -0.35468153	      5.30520201	     -4.10458899	      3.72541723	     -3.99105973	      3.14842581	      8.91520500	    -29.27377794	     -0.51092381	     10.56373446	      2.20528711	     -8.20472360	     -4.87356469	      0.14111637	    -10.75373568	     -6.41758425	     -6.38717642	    -18.34545304	     20.93655791	     89.95437384	      0.00000000	      0.00000000	      9.58122857	     12.40569507	     12.87668244	     47.18357178	     89.95437384	      0.00000000	      0.00000000
